<?xml version="1.0" encoding="UTF-8" standalone="no"?>
<svg
   xmlns:dc="http://purl.org/dc/elements/1.1/"
   xmlns:cc="http://creativecommons.org/ns#"
   xmlns:rdf="http://www.w3.org/1999/02/22-rdf-syntax-ns#"
   xmlns:svg="http://www.w3.org/2000/svg"
   xmlns="http://www.w3.org/2000/svg"
   viewBox="0 0 1152.0064 182.33547"
   height="182.33548"
   width="1152.0065"
   xml:space="preserve"
   id="svg2"
   version="1.1"><metadata
     id="metadata8"><rdf:RDF><cc:Work
         rdf:about=""><dc:format>image/svg+xml</dc:format><dc:type
           rdf:resource="http://purl.org/dc/dcmitype/StillImage" /><dc:title></dc:title></cc:Work></rdf:RDF></metadata><defs
     id="defs6" /><g
     transform="matrix(1.3333333,0,0,-1.3333333,-72.404064,281.96026)"
     id="g10"><g
       transform="scale(0.1)"
       id="g12"><path
         id="path18"
         style="fill:tomato;fill-opacity:1;fill-rule:nonzero;stroke:none;stroke-width:0.82037538"
         d="m 4550.3425,2114.702 c 2.895,-56.2523 3.7225,-91.3588 -10.3325,-101.6122 -28.1,-20.5068 -198.44,-44.4325 -248.05,-99.1218 -49.6,-54.6892 -85.57,-91.4359 -105.41,-83.7433 -19.85,7.6926 -90.54,41.0203 -109.15,7.6926 0,0 28.53,16.7984 66.57,-3.7083 38.03,-20.5136 36.38,-53.5385 -57.88,-60.9484 -94.26,-7.4099 -100.88,6.2591 -100.88,6.2591 0,0 -11.98,-14.6583 38.25,-18.0772 50.23,-3.4189 127.13,-18.3532 183.35,38.6042 0,0 10.74,14.7996 25.63,23.3402 14.88,8.554 34.72,25.6419 34.72,25.6419 0,0 15.72,-37.6082 9.1,-55.2681 -6.61,-17.6465 -33.9,-51.2569 -33.9,-51.2569 0,0 56.22,31.3424 56.22,66.0834 0,34.7411 -5.78,60.3763 2.48,68.9169 8.26,8.5473 49.83,36.4639 87.34,36.4639 0,0 11.05,-14.241 -33.6,-50.1396 0,0 36.4,19.3694 62.84,41.0203 26.46,21.6576 82.69,32.4797 86.82,18.2387 4.13,-14.2477 -15.29,-27.062 -71.11,-61.2444 -55.81,-34.1758 -70.69,-54.6826 -65.73,-70.061 4.96,-15.3851 83.1,-44.4392 68.21,-108.5238 -14.88,-64.0912 -47.13,-100.8312 -21.09,-141.8447 0,0 -3.09,36.7466 3.73,51.6943 6.82,14.9544 32.87,53.4105 35.34,62.3818 0,0 40.31,-39.7348 14.27,-81.6031 -26.04,-41.8683 -174.88,-86.3008 -205.88,-124.757 -31,-38.4494 4.96,-83.7366 4.96,-83.7366 0,0 -18.2,53.5519 4.96,72.9078 23.16,19.3627 189.79,69.4014 220.76,103.0993 0,0 23.99,23.3671 20.68,72.928 0,0 87.64,-56.9775 56.22,-128.7479 -31.43,-71.7772 -254.25,-165.4744 -254.25,-165.4744 0,0 136.01,33.8931 174.87,69.2129 0,0 -17.36,-67.5035 4.96,-97.4123 22.33,-29.9088 50.85,-40.1589 37.21,-54.6893 -13.64,-14.5237 -104.18,-51.2703 -117.83,-80.3177 -13.64,-29.0541 22.34,-60.6723 22.34,-60.6723 0,0 -16.13,40.7376 2.06,56.116 18.19,15.3851 37.21,20.5068 37.21,20.5068 0,0 12.4,-11.3942 15.7,-22.2163 3.31,-10.8288 -1.65,-27.3446 -1.65,-27.3446 0,0 22.33,30.6222 7.44,62.2338 0,0 62.01,23.495 73.18,42.299 11.16,18.7974 -58.29,61.5137 -54.57,102.534 3.72,41.0203 35.96,64.946 68.21,103.3954 32.24,38.4494 46.3,95.1241 -19.85,185.1265 -66.14,90.0024 -166.19,169.4855 -104.18,205.3707 62.02,35.8919 63.26,48.6994 94.27,-2.5574 31,-51.2771 112.45,-112.8109 133.94,-125.3358 0,0 -9.93,-85.4326 9.92,-108.2276 19.84,-22.7883 132.27,-41.0271 135.6,-83.1713 3.3,-42.151 0,-51.2703 0,-51.2703 0,0 28.11,50.1262 10.75,70.6397 -17.36,20.5068 -95.5,41.8683 -114.11,64.9393 -18.6,23.071 -8.68,93.9933 -8.68,93.9933 0,0 40.93,3.9776 98.81,-6.2792 57.89,-10.25 115.75,-5.6937 105.83,-27.3379 -9.93,-21.6442 2.48,-55.2478 12.4,-74.0452 9.92,-18.804 -1.23,-55.544 -1.23,-55.544 0,0 28.52,33.8729 18.59,57.24 -9.92,23.3604 1.66,74.6105 7.44,83.7366 5.8,9.1194 7.45,25.0631 -27.28,34.1758 -34.72,9.1261 -165.33,10.2567 -206.69,27.3513 -41.35,17.0812 -168.68,118.4912 -140.57,180.0116 0,0 36.37,11.4008 64.49,-18.2253 28.12,-29.6262 162.08,-75.2028 190.18,-96.847 28.1,-21.6442 81.01,-41.0068 104.16,-67.2141 23.16,-26.2072 52.95,-31.9076 46.31,-83.178 -6.62,-51.2703 39.69,-92.2704 16.54,-111.6398 -23.16,-19.3761 -58.7,-49.5811 -66.14,-83.1848 -7.44,-33.6036 19.82,-39.8627 -48.8,-62.0789 0,0 56.22,2.2815 64.5,22.2162 8.27,19.9347 9.94,61.5204 38.87,74.6173 0,0 -24.4,-150.944 97.14,-175.7244 0,0 -99.21,55.5372 -58.29,163.2063 40.93,107.6623 10.75,108.7997 10.75,108.7997 0,0 21.5,10.8221 68.63,6.5552 47.12,-4.2737 93.01,-17.9494 97.97,-46.9967 4.96,-29.0608 38.43,-173.7592 193.89,-133.8763 0,0 -148,-26.7726 -161.64,118.4979 0,0 3.72,96.5441 -166.2,85.4461 0,0 -45.88,23.9324 -42.56,63.8018 3.3,39.8695 -33.09,68.365 -33.09,68.365 0,0 168.68,27.311 276.17,-104.8424 0,0 -26.45,109.392 -289.38,137.8673 0,0 -29.78,18.2252 -56.24,48.9821 -26.45,30.7635 -79.37,33.0316 -89.29,45.5766 -9.93,12.5315 -67.81,36.4572 -59.54,56.964 8.28,20.5068 92.6,15.9438 100.87,-5.7004 8.27,-21.6375 19.84,-38.7253 9.93,-48.41 0,0 19.84,9.6779 17.36,19.9347 -2.48,10.25 -4.13,34.1757 -4.13,34.1757 0,0 171.14,-41.5722 172.39,-64.6431 1.24,-23.071 -8.68,-56.3988 -3.72,-73.4866 4.96,-17.0946 71.93,-29.0541 71.93,-29.0541 0,0 -40.5,17.3638 -46.29,34.4584 -5.8,17.0946 3.28,47.2928 3.28,47.2928 0,0 129.83,-174.0351 426.24,-138.9979 0,0 -164.14,-6.8513 -266.65,67.2073 0,0 23.16,23.3671 46.32,33.6172 23.15,10.2567 63.67,-19.3694 112.45,-5.7005 0,0 -55.41,3.991 -88.48,23.9257 -33.08,19.9348 -102.53,-25.0765 -102.53,-25.0765 0,0 -73.61,45.5833 -119.9,86.0248 -46.29,40.4415 -162.87,83.178 -334.02,112.2321 -67.8524,40.679 -43.546,96.2253 -46.5138,127.2474" /><path
         id="path360"
         style="fill:tomato;fill-opacity:1;fill-rule:nonzero;stroke:none"
         d="m 11338.5,5630.34 c -0.1,-13.61 -1,-21.86 -1,-21.86 1.3,6.43 1.7,13.76 1,21.86" /><path
         id="path362"
         style="fill:tomato;fill-opacity:1;fill-rule:nonzero;stroke:none;stroke-width:0.82037538"
         d="m 7283.8296,2114.702 c -15.2941,-81.356 64.9297,-82.8007 87.8,-163.5826 12.2,-52.0241 18.3,-70.3032 -75.5,-95.6086 -93.9,-25.3121 -320.4996,-63.2836 -463.2996,-271.3868 -142.9,-208.11 -102.1,-275.6067 -204.1,-323.4178 0,0 77.5,9.8463 112.2,97.0287 34.7,87.1758 104.1,184.2044 104.1,184.2044 0,0 39.5,-149.995 161.9,-241.8616 107.6,-80.7081 162.5996,-148.3596 166.9996,-187.7714 0.5,26.9744 -5.3,85.3182 -58.0996,125.901 -70.8,54.3662 -285.8,266.2383 -234.1,344.9812 51.7,78.7428 217.7,183.7265 364.6996,217.4783 0,0 -95.3,-75.9364 -93.2,-154.6792 2,-78.7429 -77.5996,-113.8945 -67.3996,-182.7911 0,0 25.5,78.0362 75.4996,120.9275 50,42.8845 99.9,-40.3204 54.4,-158.4414 -45.5,-118.1143 36.1,-168.7318 36.1,-168.7318 0,0 -57.8,50.1599 -21.1,148.5952 36.8,98.4218 49,177.1714 -34.7,222.1625 -6.1,12.6594 51.1,182.7978 167.4,185.611 116.3,2.8132 408.2,-250.7522 8.2,-479.4901 0,0 75.5,14.0593 110.2,49.2109 0,0 -98,-108.2748 -42.9,-187.0176 0,0 -38.8,75.9296 65.3,179.9913 0,0 169.4,-53.4374 2.1,-255.9209 -167.4,-202.49026 -69.4,-253.10776 -69.4,-253.10776 0,0 -38.8,57.6505 22.4,144.83296 61.3,87.1757 249.7,228.2667 97.3,385.7592 0,0 88.4,113.4233 74.2,203.4122 0,0 260.5,-135.929 135.3,-287.795 0,0 55.8,37.5072 54.5,94.6934 0,0 85.7,-0.9423 100,-54.3797 0,0 -4.1,44.2979 -93.9,73.8298 0,0 -14.3,51.3175 -33.7,71.7098 0,0 58.2,-21.0923 110.2,-14.0593 0,0 -82.6,15.7015 -133,47.5755 -50.3,31.874 -129.2,119.0363 -155.1,162.1699 -25.8,43.1268 -93.9,95.6288 -84.3,107.8104 9.5,12.1816 893.9,-103.1195 210.9,-676.825 0,0 223.8,118.121 280.9,334.6571 0,0 79.6,-59.0572 55.1,-126.5472 -24.5,-67.4967 -24.5,-99.8352 -24.5,-99.8352 0,0 24.5,66.0835 34.7,83.6626 10.2,17.5725 29.6,53.4308 -1,105.4616 0,0 74.5,-14.766 57.1,-63.9836 0,0 26.6,47.811 -62.2,86.4825 0,0 -39.5,67.2612 -46.3,121.6274 -6.8,54.373 68.1,32.8163 83,-16.8725 15,-49.682 42.2,-78.7496 42.2,-78.7496 0,0 -8.5,93.5156 -45.2,128.6672 -36.8,35.1583 -101.1,50.631 -112.3,50.631 0,0 -117.3,159.1076 -413.9,204.1055 0,0 -58.5,-2.3287 -48.3,66.5679 10.2,68.8967 -116.4,122.7978 -116.4,193.1078" /><path
         id="path364"
         style="fill:tomato;fill-opacity:1;fill-rule:nonzero;stroke:none;stroke-width:0.82037538"
         d="m 3512.2,1749.6179 c 0,0 -86.33,-34.0882 -160.93,-15.1495 -74.6,18.9453 -191.67,63.5663 -336.95,92.1829 -145.28,28.6301 -382.21,89.3832 -382.21,288.0507 l -346.5049,0 c 1.5362,-65.9858 -26.2001,-113.7834 -118.4051,-156.7184 -184.4,-85.8768 -429.16,-292.9772 -784.55,-195.3226 0,0 96.12,-52.1857 183.28,-48.8206 0,0 -97.23,-34.9362 -150.87,-34.9362 -53.64,0 -100.58,12.6257 -155.9,-32.8365 0,0 70.97,34.0883 133.56,19.7867 0,0 22.35,-26.9476 -40.24,-75.7748 0,0 62.03,29.0473 70.4,69.8792 0,0 124.05,17.6801 193.34,45.0449 69.3,27.3514 69.16,28.5224 68.74,13.3661 -0.42,-15.1563 -90.53,-82.4108 -195.58,-97.9776 0,0 87.73,5.8889 131.32,26.0995 0,0 33.52,-17.6868 -44.71,-93.4543 0,0 66.09,34.0809 81.59,91.7651 15.5,57.6774 140.82,79.1332 225.75,115.3347 0,0 22.35,-39.5666 -111.76,-106.0673 0,0 71.53,10.0885 121.82,73.2376 50.29,63.1423 139.69,91.7657 185.52,101.8609 0,0 -40.24,-22.7277 -39.12,-93.4482 1.12,-70.7138 -78.23,-188.5851 -233.57,-169.2171 0,0 50.29,-19.3626 117.34,-5.8942 0,0 -23.46,-75.754 -113.99,-79.1265 0,0 62.3,-5.8889 100.86,26.9415 0,0 0.84,-37.2602 36.88,-60.6185 0,0 -33.53,46.0935 -12.58,82.0816 20.96,35.9849 123.22,70.7185 133.28,142.0784 0,0 195.29,-95.367 61.18,-191.3323 0,0 91.52,26.9024 57.06,121.0492 0.76,-1.9315 12.32,-20.0222 176.52,-4.8591 0,0 -146.41,-6.9523 -165.68,15.7822 -19.28,22.7277 -89.13,51.553 -95.84,71.7704 -6.7,20.2039 -26.81,53.8749 -17.87,75.7614 0,0 0.55,-37.0361 106.16,-64.1923 0,0 -109.52,45.6843 -84.94,91.1466 24.59,45.4554 87.18,95.124 105.06,79.1264 17.89,-15.9908 2.23,-30.3059 20.12,-63.9769 17.88,-33.6844 60.36,-63.9903 11.18,-106.9287 0,0 51.68,11.3807 31.57,77.0401 0,0 117.75,-48.0466 135.98,-122.2398 0.23,-0.9221 0.45,-1.8508 0.64,-2.7729 0,0 -2.52,56.2036 -59.51,109.2372 0,0 90.52,6.9388 113.99,44.1902 0,0 -115.38,-38.0927 -137.74,-17.8887 -22.35,20.2174 -26.82,33.671 -48.05,59.7638 -21.25,26.113 105.04,94.2962 153.1,121.2438 48.07,26.9408 83.82,-27.3581 142.49,-56.4055 58.68,-29.0474 206.2,-219.7329 -25.14,-133.8628 0,0 28.5,-39.7753 78.78,-39.7753 0,0 -154.22,-54.9382 -108.96,-157.2285 0,0 -20.13,64.8168 68.17,108.5897 0,0 -3.36,-69.0312 92.76,-103.5502 0,0 -72.64,58.1014 -49.18,99.3506 23.47,41.2558 125.18,39.5666 95.01,149.8537 0,0 215.69,-90.0697 54.76,-191.1029 0,0 74.6,6.3129 88.84,62.5165 0,0 70.41,-134.4881 -117.34,-222.8948 0,0 140.82,42.3051 156.74,150.909 0,0 80.76,-137.0045 242.8,-147.9544 0,0 -124.06,19.3546 -188.88,128.8004 -64.82,109.4458 -83.26,152.3842 -107.84,172.5814 -24.58,20.2107 300.07,-28.6166 257.6,-166.6858 0,0 21.78,36.6121 11.73,66.9314 0,0 149.2,-75.7748 105.61,-184.3733 0,0 26.01,53.0289 7.98,113.0202 0,0 69.14,-53.0404 150.44,-62.5151 0,0 -80.19,20.2086 -139.98,74.0842 0,0 89.4,-3.365 103.38,37.4601 0,0 -47.22,-43.3422 -115.95,-16.1928 -68.73,27.1495 -78.79,54.2989 -88.85,69.4485 -10.06,15.1631 212.63,42.7096 353.44,-150.9164 0,0 -29.06,81.4679 -152.27,150.9164 0,0 121.53,0 165.12,34.7276" /><path
         id="path440"
         style="fill:tomato;fill-opacity:1;fill-rule:nonzero;stroke:none;stroke-width:0.59667963"
         d="m 5371.7476,2114.702 c 24.9821,-85.0936 25.9715,-163.3761 -22.4322,-201.8659 -96.8073,-76.9863 -197.6351,-83.3732 -252.1223,-93.6434 -54.4343,-10.2702 -82.683,-46.1958 -118.9725,-76.9863 -36.3424,-30.7905 -141.1906,-38.4898 -141.1906,-38.4898 0,0 77.6575,-15.3986 135.1071,14.1064 0,0 8.0937,-48.7599 -17.1397,-70.5724 -25.1805,-21.8057 -37.2946,-71.831 -35.2844,-93.6501 0,0 12.1141,47.4678 43.3781,78.2582 31.2641,30.7972 32.2692,92.3782 32.2692,92.3782 0,0 86.7034,55.1805 92.7869,30.1578 6.0306,-25.0227 -7.5647,-42.3461 -12.1142,-102.0022 -4.5494,-59.6629 36.2896,-157.8162 36.2896,-157.8162 0,0 -26.1856,114.1913 -18.1448,159.0949 8.0937,44.9036 22.1652,87.243 31.264,87.243 9.0989,0 11.1091,-33.3479 24.2283,-70.5657 0,0 -9.0988,50.0387 0,84.6856 9.0459,34.6401 84.6932,60.3022 106.8584,48.7532 22.2181,-11.5489 113.9999,-26.9139 113.9999,-119.2987 0,-92.3849 54.4343,-128.3037 101.8329,-164.2354 0,0 -85.6983,94.9484 -78.6626,129.5885 0,0 77.6575,5.1351 106.9113,-114.1906 0,0 -1.0051,116.7615 -101.8858,150.1162 0,0 18.4093,90.7831 -16.3462,128.3105 0,0 98.077,-3.8497 74.8538,-83.4069 0,0 21.1601,30.7972 -2.0102,84.6856 0,0 45.8645,-14.7458 56.4974,-110.9803 10.58,-96.2211 101.9387,-130.8881 132.1976,-161.6853 0,0 -61.9991,62.2136 -73.1081,121.2438 0,0 64.0621,-1.2922 110.4556,-61.5877 46.3406,-60.3022 110.9317,-41.054 110.9317,-41.054 0,0 -39.3577,-21.4893 -102.1503,52.603 -62.7396,74.099 -80.4083,77.6189 -113.6825,84.6788 0,0 -19.3085,97.2238 -77.5517,146.2934 0,0 -2.645,24.3565 -10.6858,47.4476 -8.0937,23.0979 87.7085,24.3834 111.9368,-33.3546 24.1754,-57.738 82.683,-68.0083 72.632,-125.7463 0,0 19.6259,25.9919 1.8515,54.8575 -17.7745,28.8724 -48.0334,52.4481 -50.6784,76.9863 0,0 83.5823,27.91 119.9247,-89.4976 36.2895,-117.3942 123.9981,-192.4556 213.2936,-196.2985 0,0 45.3883,5.1216 69.5637,-41.0661 0,0 -7.0357,46.1944 -77.6575,66.7214 0,0 75.6473,-28.233 161.3456,14.1132 0,0 60.5178,34.6401 113.9999,-6.4139 0,0 -53.9582,59.0235 -134.1549,34.0008 -80.1437,-25.0227 -137.1701,-14.7593 -180.4954,9.6241 -43.3781,24.3766 -116.0101,85.9643 -146.269,174.4928 -30.2589,88.5285 -190.1762,111.0005 -220.4351,131.5409 -15.1294,10.2635 -18.5704,69.1943 -5.0544,152.4262" /><path
         id="path454"
         style="fill:#4d3825;fill-opacity:1;fill-rule:nonzero;stroke:none"
         d="m 11994.7,1032.92 c 0,0 -13.8,-3.22 -35.4,-4.11 22.9,-1.24 35.4,4.11 35.4,4.11" /><path
         id="path456"
         style="fill:#4d3825;fill-opacity:1;fill-rule:nonzero;stroke:none"
         d="m 12303.7,1094.65 c -4.1,1.07 -8.3,2.1 -12.6,3.09 0,0 4.5,-1.31 12.6,-3.09" /><path
         id="path464"
         style="fill:tomato;fill-opacity:1;fill-rule:nonzero;stroke:none;stroke-width:0.82037538"
         d="m 2947.2378,2114.702 c -23.51,-140.1622 -104.9478,-414.6976 -128.4778,-431.0923 -23.48,-16.4081 -413.62,-96.9344 -557,-253.5183 0,0 108.11,74.5567 192.72,111.8418 0,0 -123.37,-108.8603 -121.62,-186.0283 0,0 45.84,115.2001 167.46,201.3192 0,0 98.72,39.1493 153.35,54.8104 54.66,15.6476 1.77,-117.448 -42.29,-154.3561 0,0 77.55,57.0515 89.89,151.0045 0,0 82.85,7.8137 104,22.3643 21.15,14.5371 -44.07,-105.1385 -130.44,-167.7694 -86.37,-62.6375 -149.83,-76.0642 -197.44,-82.7674 0,0 167.48,39.1426 225.65,87.2363 58.16,48.1004 167.46,162.1766 186.83,161.0526 19.4,-1.1172 19.4,-88.3535 -37.01,-176.7137 -56.41,-88.3602 -17.63,-112.9522 -88.14,-141.2929 -70.51,-28.3407 -204.46,-31.3087 -204.46,-31.3087 0,0 132.2,-13.0565 204.46,13.7833 72.27,26.8399 81.09,51.4588 81.09,51.4588 0,0 -3.52,-244.1896 -146.9,-357.5403 0,0 152.18,80.1649 171.59,360.8919 0,0 -9.41,76.0441 30.55,123.7744 39.94,47.7235 150.42,-93.953 72.84,-198.3445 0,0 112.83,90.9715 -21.14,250.5368 0,0 2.35,53.3163 16.45,66.743 14.1,13.4065 225.63,-157.701 108.12,-411.2261 0,0 39.96,53.6865 51.71,86.4893 0,0 -9.42,-38.7792 35.23,-98.4151 44.67,-59.6568 98.73,-113.3346 79.92,-180.4497 0,0 17.62,38.0382 3.54,87.9834 -14.12,49.9586 -108.13,143.9048 -91.66,190.1411 16.44,46.2294 35.24,152.8418 -14.12,196.8369 0,0 163.34,-85.7355 205.64,-196.0966 42.31,-110.3531 178.62,-177.4736 310.25,-187.9054 0,0 -206.81,64.8781 -247.96,129.7433 0,0 92.84,-35.7836 212.71,-26.8398 0,0 -220.94,19.3828 -236.21,64.8653 -15.27,45.4958 -59.93,149.8806 -170.4,215.4929 -110.45,65.6123 -118.09,117.0711 -114.57,121.5466 3.52,4.4756 75.8,-64.8653 163.94,-76.0575 88.12,-11.1788 430.1,-138.6816 493.55,-228.1591 0,0 -79.32,142.0333 -408.94,232.6347 0,0 133.95,-10.0684 267.93,4.4755 133.96,14.5371 252.07,5.5928 349,-17.8955 0,0 -148.05,67.1064 -507.65,35.7843 0,0 -93.42,-15.6477 -218.57,67.1131 -125.15,82.7675 -90.4849,446.7399 -69.3249,513.853" /><path
         id="path606"
         style="fill:tomato;fill-opacity:1;fill-rule:evenodd;stroke:none;stroke-width:0.82037538"
         d="m 4733.43,1785.8656 c -59.57,23.5771 -137.71,83.8847 -200.01,98.3007 -103.81,23.9997 -199.97,54.6556 -296.97,115.8933 -2.96,-46.1487 -25.76,-93.4483 -1.78,-116.9298 22.7,-22.2297 94.49,-19.4501 153.73,-29.1618 -51.3,-6.7167 -95.59,-12.5248 -137.57,-18.0166 22.25,-35.0715 43.96,-69.3401 65.69,-103.5906 -85.73,78.8903 -231.99,159.5788 -167.29,274.9539 -64.13,-49.8638 -125.2,-67.7391 -194.34,-83.454 -58.53,-13.292 -83.2,-37.1168 -90.47,-76.2325 -1.82,-9.8125 -5.58,-19.4367 -22.37,-29.2694 -2.12,28.058 -30.24,40.4953 24.41,93.9934 -45.53,-25.2583 -108.04,-35.9391 -140.91,-52.0376 -38.18,-18.7099 -59.17,-18.0705 -112.9,-40.1454 -7.98,-3.2776 -43.11,-17.3968 -47.02,-16.9257 35.16,21.5897 74.47,41.659 106.68,66.3654 57.85,44.3854 125.41,73.7222 210.55,82.3233 19.17,1.9316 38.32,5.0476 56.86,9.079 113.73,24.7199 164.15,74.1471 130.24,153.6908 h 183.8562 c 21.5813,-35.796 46.2638,-32.9215 68.0138,-68.3389 48.26,-78.5612 176.18,-107.5816 282.32,-83.804 47.48,10.6337 100.52,8.8569 151.03,12.7133 0.36,-3.816 105.61,3.9439 105.96,0.1346 -77.93,-23.1181 -188.33,-13.9516 -313.14,-50.5973 65.34,-38.1196 137.81,-21.2539 185.43,-138.9441" /><path
         d="m 1252.82,1835.1403 c 59.57,23.5771 137.71,83.8847 200.01,98.3007 103.81,23.9997 199.97,54.6556 296.97,115.8933 2.96,-46.1487 25.76,-93.4482 1.78,-116.9297 -22.7,-22.2298 -94.49,-19.4502 -153.73,-29.1618 51.3,-6.7167 95.59,-12.5248 137.57,-18.0166 -22.25,-35.0716 -43.96,-69.3402 -65.69,-103.5906 85.73,78.8902 231.99,159.5787 167.29,274.9538 64.13,-49.8637 125.2,-67.739 194.34,-83.4539 58.53,-13.2921 83.2,-37.1168 90.47,-76.2325 1.82,-9.8126 5.58,-19.4367 22.37,-29.2695 2.12,28.058 30.24,40.4954 -24.41,93.9934 45.53,-25.2583 108.04,-35.939 140.91,-52.0376 38.18,-18.7098 59.17,-18.0704 112.9,-40.1454 7.98,-3.2776 43.11,-17.3967 47.02,-16.9256 -35.16,21.5896 -74.47,41.659 -106.68,66.3654 -57.85,44.3854 -125.41,73.7221 -210.55,82.3233 -19.17,1.9315 -38.32,5.0476 -56.86,9.0789 -113.73,24.7199 -174.8952,24.8724 -140.9852,104.4161 h -254.4271 c -48.26,-78.5611 -162.8777,-126.6458 -269.0177,-102.8681 -47.48,10.6336 -100.52,8.8569 -151.03,12.7132 -0.36,-3.816 -105.61,3.9439 -105.96,0.1346 77.93,-23.118 188.33,-13.9516 313.14,-50.5973 -65.34,-38.1196 -137.81,-21.2538 -185.43,-138.9441"
         style="fill:tomato;fill-opacity:1;fill-rule:evenodd;stroke:none;stroke-width:0.82037538"
         id="path655" /><path
         id="path657"
         style="fill:tomato;fill-opacity:1;fill-rule:evenodd;stroke:none;stroke-width:1.12001777"
         d="m 7283.7,1497.4555 c -59.57,43.9455 -137.71,156.3533 -200.01,183.2235 -103.81,44.7332 -199.97,101.873 -296.97,216.0145 -2.96,-86.017 -25.76,-174.179 -1.78,-217.9464 22.7,-41.4342 94.49,-36.2533 153.73,-54.3549 -51.3,-12.5193 -95.59,-23.3451 -137.57,-33.5813 22.25,-65.3701 43.96,-129.2437 65.69,-193.0834 -85.73,147.0442 -231.99,297.4402 -167.29,512.4889 -64.13,-92.9415 -125.2,-126.2594 -194.34,-155.5506 -58.53,-24.7752 -83.2,-69.1824 -90.47,-142.0904 -1.82,-18.2897 -5.58,-36.2282 -22.37,-54.5556 -2.12,52.2976 -30.24,75.4797 24.41,175.1951 -45.53,-47.0791 -108.04,-66.9871 -140.91,-96.9933 -38.18,-34.8734 -59.17,-33.6817 -112.9,-74.8273 -7.98,-6.1091 -43.11,-32.4261 -47.02,-31.5479 35.16,40.2411 74.47,77.6485 106.68,123.699 57.85,82.7303 125.41,137.4114 210.55,153.4431 19.17,3.6002 38.32,9.4083 56.86,16.9224 113.73,46.0756 164.15,142.1405 130.24,290.4028 l 199.4473,0.3883 c 21.5813,-66.7205 30.6727,-65.6882 52.4227,-131.7031 48.26,-146.4307 176.18,-200.5222 282.32,-156.2028 47.48,19.8201 100.52,16.5084 151.03,23.6964 0.36,-7.1127 105.61,7.351 105.96,0.2509 -77.93,-43.0901 -188.33,-26.0046 -313.14,-94.3088 65.34,-71.0515 137.81,-39.6152 185.43,-258.9791" /><path
         d="m 1110.9771,2114.702 c 2.895,-56.2523 3.1479,-113.9456 -10.9071,-124.199 -28.1,-20.5068 -198.44,-44.4325 -248.05,-99.1218 -49.6,-54.6892 -85.57,-91.4359 -105.41,-83.7433 -19.85,7.6926 -90.54,41.0203 -109.15,7.6926 0,0 28.53,16.7984 66.57,-3.7084 38.03,-20.5135 36.38,-53.5384 -57.88,-60.9483 -94.26,-7.4099 -100.88,6.2591 -100.88,6.2591 0,0 -11.98,-14.6583 38.25,-18.0772 50.23,-3.4189 127.13,-18.3532 183.35,38.6042 0,0 10.74,14.7996 25.63,23.3401 14.88,8.5541 34.72,25.6419 34.72,25.6419 0,0 15.72,-37.6081 9.1,-55.268 -6.61,-17.6465 -33.9,-51.2569 -33.9,-51.2569 0,0 56.22,31.3424 56.22,66.0834 0,34.7411 -5.78,60.3763 2.48,68.9168 8.26,8.5473 49.83,36.464 87.34,36.464 0,0 11.05,-14.241 -33.6,-50.1396 0,0 36.4,19.3693 62.84,41.0203 26.46,21.6576 82.69,32.4797 86.82,18.2387 4.13,-14.2478 -15.29,-27.062 -71.11,-61.2444 -55.81,-34.1758 -70.69,-54.6826 -65.73,-70.061 4.96,-15.3851 83.1,-44.4392 68.21,-108.5238 -14.88,-64.0913 -47.13,-100.8312 -21.09,-141.8448 0,0 -3.09,36.7467 3.73,51.6944 6.82,14.9544 32.87,53.4105 35.34,62.3818 0,0 40.31,-39.7348 14.27,-81.6032 -26.04,-41.8683 -174.88,-86.3008 -205.88,-124.7569 -31,-38.4494 4.96,-83.7366 4.96,-83.7366 0,0 -18.2,53.5519 4.96,72.9078 23.16,19.3627 189.79,69.4014 220.76,103.0993 0,0 23.99,23.3671 20.68,72.928 0,0 87.64,-56.9776 56.22,-128.748 -31.43,-71.7771 -254.25,-165.4743 -254.25,-165.4743 0,0 136.01,33.893 174.87,69.2129 0,0 -17.36,-67.5035 4.96,-97.4123 22.33,-29.9088 50.85,-40.1588 37.21,-54.6893 -13.64,-14.5237 -104.18,-51.2703 -117.83,-80.3177 -13.64,-29.0541 22.34,-60.6724 22.34,-60.6724 0,0 -16.13,40.7377 2.06,56.1161 18.19,15.3851 37.21,20.5068 37.21,20.5068 0,0 12.4,-11.3942 15.7,-22.2163 3.31,-10.8288 -1.65,-27.3446 -1.65,-27.3446 0,0 22.33,30.6222 7.44,62.2338 0,0 62.01,23.4949 73.18,42.299 11.16,18.7973 -58.29,61.5137 -54.57,102.534 3.72,41.0203 35.96,64.946 68.21,103.3954 32.24,38.4494 46.3,95.1241 -19.85,185.1264 -66.14,90.0024 -166.19,169.4856 -104.18,205.3708 62.02,35.8919 63.26,48.6994 94.27,-2.5575 31,-51.277 112.45,-112.8109 133.94,-125.3357 0,0 -9.93,-85.4326 9.92,-108.2276 19.84,-22.7884 132.27,-41.0271 135.6,-83.1713 3.3,-42.151 0,-51.2704 0,-51.2704 0,0 28.11,50.1262 10.75,70.6398 -17.36,20.5068 -95.5,41.8683 -114.11,64.9393 -18.6,23.0709 -8.68,93.9933 -8.68,93.9933 0,0 40.93,3.9776 98.81,-6.2792 57.89,-10.25 115.75,-5.6937 105.83,-27.3379 -9.93,-21.6442 2.48,-55.2479 12.4,-74.0452 9.92,-18.8041 -1.23,-55.544 -1.23,-55.544 0,0 28.52,33.8729 18.59,57.24 -9.92,23.3604 1.66,74.6105 7.44,83.7366 5.8,9.1194 7.45,25.0631 -27.28,34.1758 -34.72,9.1261 -165.33,10.2567 -206.69,27.3513 -41.35,17.0812 -168.68,118.4912 -140.57,180.0115 0,0 36.37,11.4009 64.49,-18.2252 28.12,-29.6262 162.08,-75.2028 190.18,-96.847 28.1,-21.6442 81.01,-41.0068 104.16,-67.2141 23.16,-26.2072 52.95,-31.9076 46.31,-83.178 -6.62,-51.2703 39.69,-92.2704 16.54,-111.6398 -23.16,-19.3762 -58.7,-49.5811 -66.14,-83.1848 -7.44,-33.6037 19.82,-39.8627 -48.8,-62.079 0,0 56.22,2.2816 64.5,22.2163 8.27,19.9347 9.94,61.5204 38.87,74.6172 0,0 -24.4,-150.9439 97.14,-175.7244 0,0 -99.21,55.5373 -58.29,163.2064 40.93,107.6623 10.75,108.7997 10.75,108.7997 0,0 21.5,10.8221 68.63,6.5552 47.12,-4.2737 93.01,-17.9494 97.97,-46.9967 4.96,-29.0609 38.43,-173.7592 193.89,-133.8763 0,0 -148,-26.7726 -161.64,118.4979 0,0 3.72,96.5441 -166.2,85.446 0,0 -45.88,23.9325 -42.56,63.8019 3.3,39.8695 -33.09,68.365 -33.09,68.365 0,0 168.68,27.3109 276.17,-104.8424 0,0 -26.45,109.392 -289.38,137.8672 0,0 -29.78,18.2253 -56.24,48.9821 -26.45,30.7636 -79.37,33.0316 -89.29,45.5767 -9.93,12.5315 -67.81,36.4572 -59.54,56.964 8.28,20.5068 92.6,15.9438 100.87,-5.7004 8.27,-21.6375 19.84,-38.7254 9.93,-48.4101 0,0 19.84,9.678 17.36,19.9348 -2.48,10.25 -4.13,34.1757 -4.13,34.1757 0,0 171.14,-41.5722 172.39,-64.6432 1.24,-23.0709 -8.68,-56.3987 -3.72,-73.4865 4.96,-17.0946 71.93,-29.0541 71.93,-29.0541 0,0 -40.5,17.3638 -46.29,34.4584 -5.8,17.0946 3.28,47.2928 3.28,47.2928 0,0 129.83,-174.0351 426.24,-138.9979 0,0 -164.14,-6.8513 -266.65,67.2073 0,0 23.16,23.3671 46.32,33.6171 23.15,10.2568 63.67,-19.3694 112.45,-5.7004 0,0 -55.41,3.991 -88.48,23.9257 -33.08,19.9347 -102.53,-25.0766 -102.53,-25.0766 0,0 -73.61,45.5834 -119.9,86.0249 -46.29,40.4415 -162.87,83.178 -334.02,112.2321 0,0 -19.85,3.4189 -24.81,47.8514 -2.48,22.2163 -7.4533,18.6718 -14.8946,101.9828"
         style="fill:tomato;fill-opacity:1;fill-rule:nonzero;stroke:none;stroke-width:0.82037538"
         id="path659" /><path
         id="path661"
         style="fill:tomato;fill-opacity:1;fill-rule:nonzero;stroke:none;stroke-width:0.82037538"
         d="m 8616.6976,2114.702 c -2.895,-56.2524 -3.7225,-114.0641 10.3325,-124.3175 28.1,-20.5068 198.44,-44.4325 248.05,-99.1218 49.6,-54.6892 85.57,-91.4359 105.41,-83.7433 19.85,7.6925 90.54,41.0203 109.15,7.6925 0,0 -28.53,16.7985 -66.57,-3.7083 -38.03,-20.5135 -36.38,-53.5384 57.88,-60.9483 94.26,-7.4099 100.88,6.2591 100.88,6.2591 0,0 11.98,-14.6583 -38.25,-18.0772 -50.23,-3.419 -127.13,-18.3532 -183.35,38.6041 0,0 -10.74,14.7997 -25.63,23.3402 -14.88,8.5541 -34.72,25.6419 -34.72,25.6419 0,0 -15.72,-37.6081 -9.1,-55.268 6.61,-17.6465 33.9,-51.2569 33.9,-51.2569 0,0 -56.22,31.3423 -56.22,66.0834 0,34.7411 5.78,60.3763 -2.48,68.9168 -8.26,8.5473 -49.83,36.464 -87.34,36.464 0,0 -11.05,-14.241 33.6,-50.1397 0,0 -36.4,19.3694 -62.84,41.0204 -26.46,21.6576 -82.69,32.4797 -86.82,18.2387 -4.13,-14.2478 15.29,-27.062 71.11,-61.2445 55.81,-34.1757 70.69,-54.6825 65.73,-70.0609 -4.96,-15.3851 -83.1,-44.4392 -68.21,-108.5238 14.88,-64.0913 47.13,-100.8312 21.09,-141.8448 0,0 3.09,36.7467 -3.73,51.6944 -6.82,14.9544 -32.87,53.4105 -35.34,62.3818 0,0 -40.31,-39.7349 -14.27,-81.6032 26.04,-41.8683 174.88,-86.3008 205.88,-124.7569 31,-38.4494 -4.96,-83.7366 -4.96,-83.7366 0,0 18.2,53.5518 -4.96,72.9078 -23.16,19.3626 -189.79,69.4014 -220.76,103.0993 0,0 -23.99,23.3671 -20.68,72.9279 0,0 -87.64,-56.9775 -56.22,-128.7479 31.43,-71.7771 254.25,-165.4743 254.25,-165.4743 0,0 -136.01,33.893 -174.87,69.2129 0,0 17.36,-67.5035 -4.96,-97.4123 -22.33,-29.9088 -50.85,-40.1589 -37.21,-54.6893 13.64,-14.5236 104.18,-51.2703 117.83,-80.3177 13.64,-29.0541 -22.34,-60.6724 -22.34,-60.6724 0,0 16.13,40.7377 -2.06,56.1161 -18.19,15.3851 -37.21,20.5068 -37.21,20.5068 0,0 -12.4,-11.3942 -15.7,-22.2163 -3.31,-10.8288 1.65,-27.3446 1.65,-27.3446 0,0 -22.33,30.6222 -7.44,62.2338 0,0 -62.01,23.495 -73.18,42.299 -11.16,18.7974 58.29,61.5137 54.57,102.534 -3.72,41.0203 -35.96,64.946 -68.21,103.3954 -32.24,38.4494 -46.3,95.124 19.85,185.1264 66.14,90.0024 166.19,169.4856 104.18,205.3708 -62.02,35.8919 -63.26,48.6994 -94.27,-2.5575 -31,-51.277 -112.45,-112.8109 -133.94,-125.3357 0,0 9.93,-85.4326 -9.92,-108.2277 -19.84,-22.7883 -132.27,-41.027 -135.6,-83.1712 -3.3,-42.151 0,-51.2704 0,-51.2704 0,0 -28.11,50.1262 -10.75,70.6398 17.36,20.5067 95.5,41.8683 114.11,64.9392 18.6,23.071 8.68,93.9934 8.68,93.9934 0,0 -40.93,3.9775 -98.81,-6.2792 -57.89,-10.25 -115.75,-5.6937 -105.83,-27.3379 9.93,-21.6442 -2.48,-55.2479 -12.4,-74.0452 -9.92,-18.8041 1.23,-55.544 1.23,-55.544 0,0 -28.52,33.8729 -18.59,57.24 9.92,23.3604 -1.66,74.6105 -7.44,83.7366 -5.8,9.1194 -7.45,25.0631 27.28,34.1757 34.72,9.1261 165.33,10.2568 206.69,27.3514 41.35,17.0811 168.68,118.4912 140.57,180.0115 0,0 -36.37,11.4009 -64.49,-18.2252 -28.12,-29.6262 -162.08,-75.2028 -190.18,-96.847 -28.1,-21.6442 -81.01,-41.0069 -104.16,-67.2141 -23.16,-26.2072 -52.95,-31.9077 -46.31,-83.178 6.62,-51.2703 -39.69,-92.2705 -16.54,-111.6399 23.16,-19.3761 58.7,-49.581 66.14,-83.1847 7.44,-33.6037 -19.82,-39.8627 48.8,-62.079 0,0 -56.22,2.2816 -64.5,22.2163 -8.27,19.9347 -9.94,61.5203 -38.87,74.6172 0,0 24.4,-150.9439 -97.14,-175.7244 0,0 99.21,55.5373 58.29,163.2063 -40.93,107.6624 -10.75,108.7998 -10.75,108.7998 0,0 -21.5,10.8221 -68.63,6.5551 -47.12,-4.2736 -93.01,-17.9493 -97.97,-46.9966 -4.96,-29.0609 -38.43,-173.7593 -193.89,-133.8763 0,0 148,-26.7726 161.64,118.4978 0,0 -3.72,96.5442 166.2,85.4461 0,0 45.88,23.9325 42.56,63.8019 -3.3,39.8695 33.09,68.365 33.09,68.365 0,0 -168.68,27.3109 -276.17,-104.8424 0,0 26.45,109.3919 289.38,137.8672 0,0 29.78,18.2253 56.24,48.9821 26.45,30.7636 79.37,33.0316 89.29,45.5766 9.93,12.5316 67.81,36.4573 59.54,56.9641 -8.28,20.5068 -92.6,15.9437 -100.87,-5.7004 -8.27,-21.6375 -19.84,-38.7254 -9.93,-48.4101 0,0 -19.84,9.678 -17.36,19.9348 2.48,10.25 4.13,34.1757 4.13,34.1757 0,0 -171.14,-41.5722 -172.39,-64.6432 -1.24,-23.0709 8.68,-56.3987 3.72,-73.4866 -4.96,-17.0946 -71.93,-29.054 -71.93,-29.054 0,0 40.5,17.3638 46.29,34.4584 5.8,17.0946 -3.28,47.2928 -3.28,47.2928 0,0 -129.83,-174.0352 -426.24,-138.998 0,0 164.14,-6.8513 266.65,67.2074 0,0 -23.16,23.3671 -46.32,33.6171 -23.15,10.2568 -63.67,-19.3694 -112.45,-5.7004 0,0 55.41,3.991 88.48,23.9257 33.08,19.9347 102.53,-25.0766 102.53,-25.0766 0,0 73.61,45.5834 119.9,86.0249 46.29,40.4415 162.87,83.178 334.02,112.2321 0,0 19.85,3.4189 24.81,47.8514 2.48,22.2163 4.9079,18.7904 12.3492,102.1013" /></g></g></svg>